<mxfile host="app.diagrams.net" modified="2023-10-01T21:41:32.499Z" agent="Mozilla/5.0 (Windows NT 10.0; Win64; x64) AppleWebKit/537.36 (KHTML, like Gecko) Chrome/117.0.0.0 Safari/537.36 Edg/117.0.2045.47" etag="qPYwx8Q4Z3CiZA_lcTl_" version="22.0.0" type="onedrive">
  <diagram name="Page-1" id="viUECktLmqzdcAjoP8wr">
    <mxGraphModel dx="1336" dy="841" grid="1" gridSize="10" guides="1" tooltips="1" connect="1" arrows="1" fold="1" page="1" pageScale="1" pageWidth="850" pageHeight="1400" math="0" shadow="0">
      <root>
        <mxCell id="0" />
        <mxCell id="1" parent="0" />
        <mxCell id="ke123RHW9c85maTB5UZQ-3" value="" style="edgeStyle=orthogonalEdgeStyle;rounded=0;orthogonalLoop=1;jettySize=auto;html=1;" parent="1" source="ke123RHW9c85maTB5UZQ-1" target="ke123RHW9c85maTB5UZQ-2" edge="1">
          <mxGeometry relative="1" as="geometry" />
        </mxCell>
        <mxCell id="ke123RHW9c85maTB5UZQ-1" value="Get Block Name" style="ellipse;whiteSpace=wrap;html=1;" parent="1" vertex="1">
          <mxGeometry x="60" y="40" width="120" height="70" as="geometry" />
        </mxCell>
        <mxCell id="ke123RHW9c85maTB5UZQ-5" value="" style="edgeStyle=orthogonalEdgeStyle;rounded=0;orthogonalLoop=1;jettySize=auto;html=1;" parent="1" source="ke123RHW9c85maTB5UZQ-2" target="ke123RHW9c85maTB5UZQ-4" edge="1">
          <mxGeometry relative="1" as="geometry" />
        </mxCell>
        <mxCell id="ke123RHW9c85maTB5UZQ-2" value="Switch &lt;br&gt;Check for blockType" style="whiteSpace=wrap;html=1;" parent="1" vertex="1">
          <mxGeometry x="60" y="150" width="120" height="60" as="geometry" />
        </mxCell>
        <mxCell id="ke123RHW9c85maTB5UZQ-9" value="Yes" style="edgeStyle=orthogonalEdgeStyle;rounded=0;orthogonalLoop=1;jettySize=auto;html=1;" parent="1" source="ke123RHW9c85maTB5UZQ-4" target="ke123RHW9c85maTB5UZQ-8" edge="1">
          <mxGeometry relative="1" as="geometry" />
        </mxCell>
        <mxCell id="ke123RHW9c85maTB5UZQ-11" value="No" style="edgeStyle=orthogonalEdgeStyle;rounded=0;orthogonalLoop=1;jettySize=auto;html=1;" parent="1" source="ke123RHW9c85maTB5UZQ-4" target="ke123RHW9c85maTB5UZQ-10" edge="1">
          <mxGeometry relative="1" as="geometry" />
        </mxCell>
        <mxCell id="ke123RHW9c85maTB5UZQ-4" value="Case AIR" style="rhombus;whiteSpace=wrap;html=1;" parent="1" vertex="1">
          <mxGeometry x="75" y="255" width="90" height="90" as="geometry" />
        </mxCell>
        <mxCell id="ke123RHW9c85maTB5UZQ-8" value="Return &quot;Empty Block&quot;" style="whiteSpace=wrap;html=1;" parent="1" vertex="1">
          <mxGeometry x="240" y="270" width="120" height="60" as="geometry" />
        </mxCell>
        <mxCell id="ke123RHW9c85maTB5UZQ-13" value="No" style="edgeStyle=orthogonalEdgeStyle;rounded=0;orthogonalLoop=1;jettySize=auto;html=1;" parent="1" source="ke123RHW9c85maTB5UZQ-10" target="ke123RHW9c85maTB5UZQ-12" edge="1">
          <mxGeometry relative="1" as="geometry" />
        </mxCell>
        <mxCell id="ke123RHW9c85maTB5UZQ-19" value="Yes" style="edgeStyle=orthogonalEdgeStyle;rounded=0;orthogonalLoop=1;jettySize=auto;html=1;" parent="1" source="ke123RHW9c85maTB5UZQ-10" target="ke123RHW9c85maTB5UZQ-18" edge="1">
          <mxGeometry relative="1" as="geometry" />
        </mxCell>
        <mxCell id="ke123RHW9c85maTB5UZQ-10" value="Case WOOD" style="rhombus;whiteSpace=wrap;html=1;" parent="1" vertex="1">
          <mxGeometry x="75" y="400" width="90" height="90" as="geometry" />
        </mxCell>
        <mxCell id="ke123RHW9c85maTB5UZQ-15" value="No" style="edgeStyle=orthogonalEdgeStyle;rounded=0;orthogonalLoop=1;jettySize=auto;html=1;" parent="1" source="ke123RHW9c85maTB5UZQ-12" target="ke123RHW9c85maTB5UZQ-14" edge="1">
          <mxGeometry relative="1" as="geometry" />
        </mxCell>
        <mxCell id="ke123RHW9c85maTB5UZQ-21" value="Yes" style="edgeStyle=orthogonalEdgeStyle;rounded=0;orthogonalLoop=1;jettySize=auto;html=1;" parent="1" source="ke123RHW9c85maTB5UZQ-12" target="ke123RHW9c85maTB5UZQ-20" edge="1">
          <mxGeometry relative="1" as="geometry" />
        </mxCell>
        <mxCell id="ke123RHW9c85maTB5UZQ-12" value="Case LEAVES" style="rhombus;whiteSpace=wrap;html=1;" parent="1" vertex="1">
          <mxGeometry x="75" y="550" width="90" height="90" as="geometry" />
        </mxCell>
        <mxCell id="ke123RHW9c85maTB5UZQ-17" value="No" style="edgeStyle=orthogonalEdgeStyle;rounded=0;orthogonalLoop=1;jettySize=auto;html=1;" parent="1" source="ke123RHW9c85maTB5UZQ-14" target="ke123RHW9c85maTB5UZQ-16" edge="1">
          <mxGeometry relative="1" as="geometry" />
        </mxCell>
        <mxCell id="ke123RHW9c85maTB5UZQ-23" value="Yes" style="edgeStyle=orthogonalEdgeStyle;rounded=0;orthogonalLoop=1;jettySize=auto;html=1;" parent="1" source="ke123RHW9c85maTB5UZQ-14" target="ke123RHW9c85maTB5UZQ-22" edge="1">
          <mxGeometry relative="1" as="geometry" />
        </mxCell>
        <mxCell id="ke123RHW9c85maTB5UZQ-14" value="Case STONE" style="rhombus;whiteSpace=wrap;html=1;" parent="1" vertex="1">
          <mxGeometry x="75" y="700" width="90" height="90" as="geometry" />
        </mxCell>
        <mxCell id="ke123RHW9c85maTB5UZQ-25" value="Yes" style="edgeStyle=orthogonalEdgeStyle;rounded=0;orthogonalLoop=1;jettySize=auto;html=1;" parent="1" source="ke123RHW9c85maTB5UZQ-16" target="ke123RHW9c85maTB5UZQ-24" edge="1">
          <mxGeometry relative="1" as="geometry" />
        </mxCell>
        <mxCell id="ke123RHW9c85maTB5UZQ-27" value="No" style="edgeStyle=orthogonalEdgeStyle;rounded=0;orthogonalLoop=1;jettySize=auto;html=1;" parent="1" source="ke123RHW9c85maTB5UZQ-16" target="ke123RHW9c85maTB5UZQ-26" edge="1">
          <mxGeometry relative="1" as="geometry" />
        </mxCell>
        <mxCell id="ke123RHW9c85maTB5UZQ-16" value="Case IRON_ORE" style="rhombus;whiteSpace=wrap;html=1;" parent="1" vertex="1">
          <mxGeometry x="75" y="850" width="90" height="90" as="geometry" />
        </mxCell>
        <mxCell id="ke123RHW9c85maTB5UZQ-18" value="Return &quot;Wood&quot;" style="whiteSpace=wrap;html=1;" parent="1" vertex="1">
          <mxGeometry x="240" y="415" width="120" height="60" as="geometry" />
        </mxCell>
        <mxCell id="ke123RHW9c85maTB5UZQ-20" value="Return &quot;Leaves&quot;" style="whiteSpace=wrap;html=1;" parent="1" vertex="1">
          <mxGeometry x="240" y="565" width="120" height="60" as="geometry" />
        </mxCell>
        <mxCell id="ke123RHW9c85maTB5UZQ-22" value="Return &quot;Stone&quot;" style="whiteSpace=wrap;html=1;" parent="1" vertex="1">
          <mxGeometry x="240" y="715" width="120" height="60" as="geometry" />
        </mxCell>
        <mxCell id="ke123RHW9c85maTB5UZQ-24" value="Return &quot;Iron Ore&quot;" style="whiteSpace=wrap;html=1;" parent="1" vertex="1">
          <mxGeometry x="240" y="865" width="120" height="60" as="geometry" />
        </mxCell>
        <mxCell id="ke123RHW9c85maTB5UZQ-29" value="" style="edgeStyle=orthogonalEdgeStyle;rounded=0;orthogonalLoop=1;jettySize=auto;html=1;" parent="1" source="ke123RHW9c85maTB5UZQ-26" target="ke123RHW9c85maTB5UZQ-28" edge="1">
          <mxGeometry relative="1" as="geometry" />
        </mxCell>
        <mxCell id="ke123RHW9c85maTB5UZQ-26" value="Default" style="rhombus;whiteSpace=wrap;html=1;" parent="1" vertex="1">
          <mxGeometry x="75" y="1000" width="90" height="90" as="geometry" />
        </mxCell>
        <mxCell id="ke123RHW9c85maTB5UZQ-28" value="Return &quot;Unknown&quot;" style="whiteSpace=wrap;html=1;" parent="1" vertex="1">
          <mxGeometry x="240" y="1015" width="120" height="60" as="geometry" />
        </mxCell>
        <mxCell id="ke123RHW9c85maTB5UZQ-41" value="" style="endArrow=none;html=1;rounded=0;exitX=1;exitY=0.5;exitDx=0;exitDy=0;" parent="1" source="ke123RHW9c85maTB5UZQ-8" edge="1">
          <mxGeometry width="50" height="50" relative="1" as="geometry">
            <mxPoint x="480" y="460" as="sourcePoint" />
            <mxPoint x="480" y="300" as="targetPoint" />
          </mxGeometry>
        </mxCell>
        <mxCell id="ke123RHW9c85maTB5UZQ-42" value="" style="endArrow=none;html=1;rounded=0;exitX=1;exitY=0.5;exitDx=0;exitDy=0;" parent="1" source="ke123RHW9c85maTB5UZQ-18" edge="1">
          <mxGeometry width="50" height="50" relative="1" as="geometry">
            <mxPoint x="480" y="510" as="sourcePoint" />
            <mxPoint x="480" y="445" as="targetPoint" />
          </mxGeometry>
        </mxCell>
        <mxCell id="ke123RHW9c85maTB5UZQ-43" value="" style="endArrow=none;html=1;rounded=0;exitX=1;exitY=0.5;exitDx=0;exitDy=0;" parent="1" edge="1">
          <mxGeometry width="50" height="50" relative="1" as="geometry">
            <mxPoint x="360" y="594.52" as="sourcePoint" />
            <mxPoint x="480" y="594.52" as="targetPoint" />
          </mxGeometry>
        </mxCell>
        <mxCell id="ke123RHW9c85maTB5UZQ-44" value="" style="endArrow=none;html=1;rounded=0;exitX=1;exitY=0.5;exitDx=0;exitDy=0;" parent="1" edge="1">
          <mxGeometry width="50" height="50" relative="1" as="geometry">
            <mxPoint x="360" y="1044.52" as="sourcePoint" />
            <mxPoint x="480" y="1044.52" as="targetPoint" />
          </mxGeometry>
        </mxCell>
        <mxCell id="ke123RHW9c85maTB5UZQ-45" value="" style="endArrow=none;html=1;rounded=0;exitX=1;exitY=0.5;exitDx=0;exitDy=0;" parent="1" edge="1">
          <mxGeometry width="50" height="50" relative="1" as="geometry">
            <mxPoint x="360" y="894.52" as="sourcePoint" />
            <mxPoint x="480" y="894.52" as="targetPoint" />
          </mxGeometry>
        </mxCell>
        <mxCell id="ke123RHW9c85maTB5UZQ-46" value="" style="endArrow=none;html=1;rounded=0;exitX=1;exitY=0.5;exitDx=0;exitDy=0;" parent="1" edge="1">
          <mxGeometry width="50" height="50" relative="1" as="geometry">
            <mxPoint x="360" y="744.52" as="sourcePoint" />
            <mxPoint x="480" y="744.52" as="targetPoint" />
          </mxGeometry>
        </mxCell>
        <mxCell id="ke123RHW9c85maTB5UZQ-47" value="" style="endArrow=classic;html=1;rounded=0;" parent="1" edge="1">
          <mxGeometry width="50" height="50" relative="1" as="geometry">
            <mxPoint x="480" y="300" as="sourcePoint" />
            <mxPoint x="480" y="1150" as="targetPoint" />
          </mxGeometry>
        </mxCell>
        <mxCell id="ke123RHW9c85maTB5UZQ-48" value="End" style="ellipse;whiteSpace=wrap;html=1;" parent="1" vertex="1">
          <mxGeometry x="420" y="1150" width="120" height="70" as="geometry" />
        </mxCell>
      </root>
    </mxGraphModel>
  </diagram>
</mxfile>
